<svg viewBox="0 0 120 120" xml:space="preserve" xmlns="http://www.w3.org/2000/svg" enable-background="new 0 0 120 120"><path d="M23.4 100.7h73.1c4.1 0 7.3-3.3 7.3-7.3V31.1c0-4.1-3.3-7.3-7.3-7.3H23.4c-4.1 0-7.3 3.3-7.3 7.3v62.2c0 4.1 3.3 7.4 7.3 7.4z" fill="#ffffff" class="fill-fff2f2"></path><path d="M103.9 30.8v15.1H16.1V30.8c0-3.9 3.2-7 7-7h73.7c3.9-.1 7.1 3.1 7.1 7z" fill="#e34d00" class="fill-f47c7c"></path><circle cx="38.9" cy="34.8" r="3.6" fill="#e34d00" class="fill-d66767"></circle><circle cx="60" cy="34.8" r="3.6" fill="#e34d00" class="fill-d66767"></circle><circle cx="81.1" cy="34.8" r="3.6" fill="#e34d00" class="fill-d66767"></circle><path d="M39.9 19.3h-2c-.6 0-1.1.5-1.1 1.1v13.9c0 .6.5 1.1 1.1 1.1h2c.6 0 1.1-.5 1.1-1.1V20.5c.1-.7-.5-1.2-1.1-1.2zM61 19.3h-2c-.6 0-1.1.5-1.1 1.1v13.9c0 .6.5 1.1 1.1 1.1h2c.6 0 1.1-.5 1.1-1.1V20.5c0-.7-.5-1.2-1.1-1.2zM82.1 19.3h-2c-.6 0-1.1.5-1.1 1.1v13.9c0 .6.5 1.1 1.1 1.1h2c.6 0 1.1-.5 1.1-1.1V20.5c0-.7-.5-1.2-1.1-1.2z" fill="#ffffff" class="fill-fff2f2"></path><path d="M40.9 56h-8.6c-1 0-1.8.8-1.8 1.8v8.6c0 1 .8 1.8 1.8 1.8h8.6c1 0 1.8-.8 1.8-1.8v-8.6c.1-.9-.7-1.8-1.8-1.8zM64.3 56h-8.6c-1 0-1.8.8-1.8 1.8v8.6c0 1 .8 1.8 1.8 1.8h8.6c1 0 1.8-.8 1.8-1.8v-8.6c.1-.9-.8-1.8-1.8-1.8zM87.7 56h-8.6c-1 0-1.8.8-1.8 1.8v8.6c0 1 .8 1.8 1.8 1.8h8.6c1 0 1.8-.8 1.8-1.8v-8.6c0-.9-.8-1.8-1.8-1.8zM40.9 78.7h-8.6c-1 0-1.8.8-1.8 1.8v8.6c0 1 .8 1.8 1.8 1.8h8.6c1 0 1.8-.8 1.8-1.8v-8.6c.1-1-.7-1.8-1.8-1.8zM64.3 78.7h-8.6c-1 0-1.8.8-1.8 1.8v8.6c0 1 .8 1.8 1.8 1.8h8.6c1 0 1.8-.8 1.8-1.8v-8.6c.1-1-.8-1.8-1.8-1.8zM87.7 78.7h-8.6c-1 0-1.8.8-1.8 1.8v8.6c0 1 .8 1.8 1.8 1.8h8.6c1 0 1.8-.8 1.8-1.8v-8.6c0-1-.8-1.8-1.8-1.8z" fill="#e34d00" class="fill-fca4a4"></path><circle cx="89.5" cy="86.9" r="19.2" fill="#8aaeff" class="fill-8aaeff"></circle><circle cx="89.5" cy="86.9" r="16.1" fill="#658fdb" class="fill-658fdb"></circle><path d="M91.5 83.6v-8c0-1.1-.9-2-2-2s-2 .9-2 2v8c-.6.3-1 .8-1.4 1.4h-4.5c-1.1 0-2 .9-2 2s.9 2 2 2h4.5c.7 1.2 1.9 1.9 3.4 1.9 2.2 0 3.9-1.8 3.9-3.9 0-1.5-.7-2.7-1.9-3.4zm-2 5.3c-1.1 0-1.9-.9-1.9-1.9s.9-1.9 1.9-1.9 1.9.9 1.9 1.9-.8 1.9-1.9 1.9z" fill="#ffffff" class="fill-fff2f2"></path></svg>