<svg id="SvgjsSvg1001" width="288" height="288" xmlns="http://www.w3.org/2000/svg" version="1.1" xmlns:xlink="http://www.w3.org/1999/xlink" xmlns:svgjs="http://svgjs.com/svgjs"><defs id="SvgjsDefs1002"></defs><g id="SvgjsG1008"><svg xmlns="http://www.w3.org/2000/svg" xmlns:xlink="http://www.w3.org/1999/xlink" enable-background="new 0 0 64 64" viewBox="0 0 64 64" width="288" height="288"><pattern id="a" width="32.186" height="33.457" x="-504" y="-672" overflow="visible" patternUnits="userSpaceOnUse" viewBox="0 -33.457 32.186 33.457"><polygon fill="none" points="0 0 32.186 0 32.186 -33.457 0 -33.457"></polygon><polygon fill="#e34d00" points="32.186 0 0 0 0 -33.457 32.186 -33.457" class="colorA92A46 svgShape"></polygon></pattern><pattern id="b" patternTransform="translate(193.215 200.522) scale(1.0296)" xlink:href="#a"></pattern><circle cx="31.285" cy="37.502" r="26.498" fill="url(#b)"></circle><circle cx="31.285" cy="37.502" r="21.16" fill="#ffffff" class="colorEBEBEB svgShape"></circle><circle cx="31.285" cy="20.346" r="2.574" fill="#455c6c" class="color455C6C svgShape"></circle><circle cx="43.417" cy="25.371" r="2.574" fill="#455c6c" class="color455C6C svgShape"></circle><circle cx="48.442" cy="37.502" r="2.574" fill="#455c6c" class="color455C6C svgShape"></circle><circle cx="43.417" cy="49.634" r="2.574" fill="#455c6c" class="color455C6C svgShape"></circle><circle cx="31.285" cy="54.659" r="2.574" fill="#455c6c" class="color455C6C svgShape"></circle><circle cx="19.153" cy="49.634" r="2.574" fill="#455c6c" class="color455C6C svgShape"></circle><circle cx="14.128" cy="37.502" r="2.574" fill="#455c6c" class="color455C6C svgShape"></circle><circle cx="19.153" cy="25.371" r="2.574" fill="#455c6c" class="color455C6C svgShape"></circle><circle cx="31.285" cy="37.502" r="1.501" fill="#455c6c" class="color455C6C svgShape"></circle><polygon fill="#455c6c" points="30.427 37.502 31.285 26.827 32.143 37.502" class="color455C6C svgShape"></polygon><polygon fill="#455c6c" points="31.892 36.896 38.834 45.051 30.679 38.109" class="color455C6C svgShape"></polygon><path fill="#455c6c" d="M20.299 10.286C13.562 13.002 8.072 18.149 4.904 24.64c-2.425-1.95-3.981-4.941-3.981-8.298 0-5.873 4.758-10.632 10.632-10.632C15.181 5.711 18.378 7.524 20.299 10.286zM63.077 16.342c0 3.826-2.019 7.177-5.05 9.053-2.939-6.474-8.161-11.695-14.635-14.635 1.876-3.031 5.227-5.05 9.053-5.05C58.319 5.711 63.077 10.469 63.077 16.342z" class="color455C6C svgShape"></path><rect width="10.575" height="3.908" x="26.712" y="5.171" fill="#455c6c" class="color455C6C svgShape"></rect><rect width="10.575" height="1.263" x="26.712" fill="#455c6c" class="color455C6C svgShape"></rect><rect width="3.717" height="3.908" x="30.141" y="1.263" fill="#455c6c" class="color455C6C svgShape"></rect></svg></g></svg>