<svg data-name="Layer 1" viewBox="0 0 512 512" xmlns="http://www.w3.org/2000/svg"><circle cx="197.16" cy="114.15" r="9.11" transform="rotate(-67.5 197.161 114.15)" fill="#e34d00" class="fill-000000"></circle><circle cx="227.25" cy="114.15" r="9.11" transform="rotate(-67.5 227.242 114.15)" fill="#e34d00" class="fill-000000"></circle><circle cx="257.33" cy="114.15" r="9.11" transform="rotate(-67.5 257.334 114.146)" fill="#e34d00" class="fill-000000"></circle><path d="M419.9 239A66.48 66.48 0 0 0 388 114.15h-2.21a5.68 5.68 0 0 0-.72 0h-74.33c0-32.95-37.46-59.76-83.49-59.76s-83.49 26.81-83.49 59.76H87.35A39.42 39.42 0 0 0 48 153.53v257.84H38a14.76 14.76 0 0 0-14.75 14.75v16.73A14.77 14.77 0 0 0 38 457.61h270a36.31 36.31 0 0 0 36.26-36.27v-92.55a5.1 5.1 0 1 0-10.2 0v92.55A26.1 26.1 0 0 1 308 447.41H198.11a18 18 0 0 1 0-36.08h91a5.1 5.1 0 0 0 5.1-5.1V324.6a77.55 77.55 0 0 1 77.47-77.47h29.42a77.55 77.55 0 0 1 77.47 77.47v127.91a5.1 5.1 0 1 0 10.2 0V324.6A87.83 87.83 0 0 0 419.9 239Zm24.4-58.32a56.29 56.29 0 1 1-56.3-56.33 56.35 56.35 0 0 1 56.3 56.29Zm-217-116c40.41 0 73.29 22.24 73.29 49.56s-32.88 49.55-73.29 49.55a99.47 99.47 0 0 1-39.46-7.85 5.15 5.15 0 0 0-2-.43 5.29 5.29 0 0 0-1.52.23l-19.68 6.14.68-19.21a5.09 5.09 0 0 0-1.25-3.52c-6.56-7.56-10-16.17-10-24.91-.07-27.41 32.77-49.65 73.18-49.65ZM38 447.41a4.56 4.56 0 0 1-4.55-4.56v-16.73a4.55 4.55 0 0 1 4.55-4.55h133.22a29.39 29.39 0 0 0-1.12 8 27.92 27.92 0 0 0 6.41 17.81Zm160.13-46.28a27.78 27.78 0 0 0-21.57 10.24H58.17v-38.76H284v28.52Zm-3.81-38.72H97.13V324a48.59 48.59 0 0 1 97.17 0ZM284 324.6v37.81h-79.5V324a58.88 58.88 0 0 0-36.93-54.56 43.13 43.13 0 1 0-43.71 0A58.86 58.86 0 0 0 86.93 324v38.44H58.17V153.53a29.21 29.21 0 0 1 29.18-29.18H145a49.85 49.85 0 0 0 10 19.83l-.87 24.44a5.12 5.12 0 0 0 5.1 5.28 5 5 0 0 0 1.52-.23l24.73-7.67a110.46 110.46 0 0 0 41.77 8c41.18 0 75.48-21.45 82.26-49.55h43.18a66.41 66.41 0 0 0 2.59 114.12A87.82 87.82 0 0 0 284 324.6Zm-138.29-59.41a32.94 32.94 0 1 1 32.94-32.94 33 33 0 0 1-32.94 32.94Z" fill="#e34d00" class="fill-000000"></path></svg>