<svg width="46" height="54" viewBox="0 0 46 54" fill="none" xmlns="http://www.w3.org/2000/svg">
<path fill-rule="evenodd" clip-rule="evenodd" d="M16.174 0.0687994C15.498 0.250205 14.8895 0.798642 14.4796 1.60442C14.0909 2.35535 13.9515 2.98816 13.9515 3.94583C13.9557 5.1566 14.2557 5.99614 14.9191 6.65003C16.0684 7.78909 17.8769 7.5655 18.7896 6.17331C19.1825 5.57425 19.3769 4.81068 19.3769 3.88255C19.3769 1.44411 17.8431 -0.382606 16.174 0.0687994ZM10.6091 2.12756C9.86546 2.31741 9.26545 3.04302 9.08374 3.96693C8.86402 5.07223 9.35417 6.21974 10.2077 6.62051C10.4063 6.71334 10.4993 6.7302 10.8415 6.7302C11.2134 6.7302 11.2641 6.72178 11.5303 6.58677C12.0669 6.31677 12.4979 5.73458 12.688 5.02161C12.781 4.6588 12.781 3.99645 12.6838 3.62943C12.3965 2.56209 11.4838 1.89975 10.6091 2.12756ZM5.73721 7.45585C5.23017 6.36319 5.65694 4.95835 6.59077 4.6335C7.14851 4.44367 7.68514 4.65038 8.05275 5.19883C8.28093 5.54475 8.39502 5.92444 8.39925 6.37163C8.40348 6.80194 8.34009 7.10569 8.17107 7.44319C7.8246 8.13084 7.18656 8.45147 6.56541 8.24897C6.29075 8.15616 5.88089 7.76381 5.73721 7.45585ZM3.34558 7.31664C2.95261 7.46429 2.68218 7.83132 2.59345 8.34602C2.49627 8.9071 2.67795 9.51883 3.06247 9.92804C3.32867 10.2107 3.56108 10.3415 3.86953 10.3668C4.71886 10.447 5.27238 9.40914 4.93013 8.3882C4.6597 7.5782 3.94559 7.09727 3.34558 7.31664ZM5.14428 12.0468C8.04048 10.0665 11.0908 8.87996 13.8238 8.67524C15.8034 8.52629 17.5283 8.85316 18.8522 9.588H14.0038C9.06126 9.588 6.59001 12.1635 6.59001 17.3147V44.715C6.59001 47.7401 7.00958 49.9596 7.8487 51.3738C6.93282 50.3765 6.29259 49.1543 6.01904 47.8055C5.92385 47.3291 5.91479 46.2387 6.00543 45.4574C6.12329 44.3629 6.05982 43.2892 5.75163 41.2253C5.38449 38.756 4.56865 35.1965 3.82535 32.8192C3.49901 31.7832 3.15909 30.8348 2.24355 28.4075C0.770509 24.5221 0.326333 23.0891 0.0815833 21.4554C-0.0271943 20.7243 -0.0271943 19.3038 0.0815833 18.6604C0.33993 17.148 0.906482 15.9448 1.95347 14.7207C2.5608 14.0062 3.81176 12.9576 5.14428 12.0468ZM13.3741 53.9868C11.0542 53.8866 9.3564 53.2202 8.28087 51.9872C8.1262 51.803 7.98215 51.5987 7.8487 51.3738C8.79931 52.4088 10.0469 53.2014 11.4896 53.6418C12.1208 53.8351 12.7506 53.9498 13.3741 53.9868ZM13.8933 53.9996C13.7169 53.9983 13.5439 53.9942 13.3741 53.9868C13.5477 53.997 13.7208 54.0013 13.8933 53.9996ZM13.8933 53.9996C15.3796 53.9849 16.8218 53.5247 18.1523 52.6308C18.6282 52.3133 19.5664 51.4234 19.929 50.9513C20.2599 50.5167 20.695 49.7774 20.9125 49.2718C21.0711 48.9041 21.2887 48.1604 21.3794 47.6925C21.47 47.2163 21.4519 45.892 21.3522 45.3739C21.0213 43.6818 20.0831 42.136 18.2792 40.2976C18.0435 40.0554 17.3818 39.4079 16.8061 38.8564C14.5989 36.7341 13.6153 35.6227 12.7814 34.3109C11.4715 32.2427 11.0727 29.9824 11.6981 28.1317C11.8704 27.622 12.3055 26.8366 12.6545 26.4063C13.2754 25.6417 14.0459 24.9982 15.7592 23.8243C17.0917 22.9094 18.048 22.0153 19.0225 20.7869C21.4337 17.7329 22.2361 14.4825 21.1754 12.0802C20.7036 11.0144 19.9047 10.1722 18.8522 9.588H23.5636C30.327 9.588 35.7465 11.5359 39.8219 15.4317C43.9406 19.3275 46 24.695 46 31.5343C46 33.7419 45.7832 35.8846 45.3497 37.9623C44.9595 40.0401 44.2875 42.0746 43.3336 44.0657C42.3798 46.0136 41.1876 47.7234 39.7568 49.1952C38.3261 50.6236 36.5052 51.7924 34.2941 52.7014C32.0829 53.5671 29.59 54 26.8153 54H14.0038C13.9668 54 13.93 54 13.8933 53.9996ZM0.708909 9.75084C0.497637 9.81413 0.218758 10.1179 0.10467 10.4048C-0.0389948 10.776 -0.0347694 11.4215 0.117347 11.8433C0.531441 12.9908 1.56667 13.206 2.03992 12.2441C2.13711 12.0416 2.15823 11.9404 2.17091 11.5733C2.19627 10.9363 2.03992 10.4554 1.67654 10.0715C1.40611 9.78039 1.02159 9.65382 0.708909 9.75084ZM24.5391 44.8449C23.7154 45.0613 22.7399 45.1695 21.6126 45.1695V18.6132C23 18.6565 24.1706 18.873 25.1244 19.2625C26.1216 19.6088 27.032 20.2365 27.8558 21.1455C28.6795 22.0112 29.3082 23.3098 29.7418 25.0413C30.1753 26.7295 30.3921 28.8072 30.3921 31.2745C30.3921 33.4822 30.2403 35.4084 29.9369 37.0533C29.6767 38.6549 29.3082 39.9752 28.8313 41.014C28.3544 42.0529 27.7257 42.897 26.9453 43.5463C26.2083 44.1523 25.4062 44.5852 24.5391 44.8449Z" fill="#E34D00"/>
</svg>
