<svg width="113" height="133" viewBox="0 0 113 133" fill="none" xmlns="http://www.w3.org/2000/svg">
<path fill-rule="evenodd" clip-rule="evenodd" d="M40.9481 0.339C39.2486 0.784654 37.719 2.13198 36.6887 4.11151C35.7115 5.95631 35.361 7.51092 35.361 9.86356C35.3716 12.838 36.1258 14.9005 37.7934 16.5069C40.6825 19.3052 45.2287 18.7559 47.523 15.3358C48.5108 13.8641 48.9994 11.9882 48.9994 9.70809C48.9994 3.71768 45.1437 -0.769952 40.9481 0.339ZM26.9591 5.39669C25.0897 5.86307 23.5814 7.64569 23.1246 9.91541C22.5723 12.6308 23.8044 15.4498 25.95 16.4344C26.4493 16.6624 26.6829 16.7039 27.5433 16.7039C28.478 16.7039 28.6055 16.6831 29.2747 16.3515C30.6236 15.6882 31.7071 14.2579 32.1851 12.5064C32.4187 11.6151 32.4187 9.98796 32.1744 9.08629C31.4521 6.46419 29.1578 4.83703 26.9591 5.39669ZM14.7122 18.4865C13.4375 15.8022 14.5103 12.351 16.8578 11.553C18.2599 11.0866 19.6088 11.5944 20.5329 12.9417C21.1065 13.7916 21.3933 14.7244 21.4039 15.8229C21.4145 16.8801 21.2552 17.6263 20.8303 18.4554C19.9593 20.1447 18.3554 20.9324 16.794 20.4349C16.1036 20.2069 15.0733 19.2431 14.7122 18.4865ZM8.70011 18.1445C7.71228 18.5073 7.03248 19.4089 6.80942 20.6734C6.56512 22.0518 7.02186 23.5546 7.98844 24.5599C8.65762 25.2543 9.24182 25.5756 10.0172 25.6377C12.1522 25.8347 13.5437 23.2851 12.6833 20.777C12.0035 18.7871 10.2084 17.6056 8.70011 18.1445ZM13.2217 29.765C20.5021 24.9 28.1699 21.9851 35.0402 21.4822C39.7875 21.1331 43.9524 21.8479 47.2149 23.4819H33.4106C21.2506 23.4819 15.1706 29.8286 15.1706 42.5219V104.454C15.0583 103.551 14.9181 102.557 14.7484 101.447C13.8255 95.3807 11.7747 86.6361 9.90615 80.796C9.08582 78.2506 8.2313 75.9208 5.92982 69.9576C2.22693 60.4123 1.11037 56.8919 0.495122 52.8788C0.221678 51.0826 0.221678 47.593 0.495122 46.0124C1.14455 42.2969 2.56874 39.341 5.20063 36.3337C6.72736 34.5786 9.87197 32.0024 13.2217 29.765ZM15.2543 113.558C15.1985 112.44 15.1706 111.268 15.1706 110.042V104.454C15.5712 107.675 15.6178 109.744 15.3864 111.844C15.3236 112.373 15.2798 112.96 15.2543 113.558ZM15.8751 119.354C15.5673 117.616 15.3604 115.684 15.2543 113.558C15.1876 115.126 15.2473 116.765 15.4206 117.612C15.5432 118.203 15.6952 118.784 15.8751 119.354ZM53.854 111.126C53.8935 111.296 53.9305 111.467 53.9648 111.638C54.2154 112.911 54.261 116.165 54.0331 117.335C53.8053 118.484 53.2584 120.311 52.8596 121.214C52.3127 122.456 51.219 124.273 50.3872 125.34C49.4758 126.5 47.1173 128.686 45.921 129.466C40.7939 132.833 35.006 133.695 29.1725 131.95C22.6747 130.012 17.7517 125.295 15.8751 119.354C16.5467 123.147 17.6985 126.016 19.3306 127.962C22.2106 131.269 26.904 132.922 33.4106 132.922H64.9306C71.7573 132.922 77.8906 131.855 83.3306 129.722C88.7706 127.482 93.2506 124.602 96.7706 121.082C100.291 117.455 103.224 113.242 105.571 108.442C107.917 103.535 109.571 98.5219 110.531 93.4019C111.597 88.2819 112.131 83.0019 112.131 77.5619C112.131 60.7086 107.064 47.4819 96.9306 37.8819C86.904 28.2819 73.5706 23.4819 56.9306 23.4819H47.2149C50.0911 24.9224 52.266 27.0772 53.5204 29.8471C56.1865 35.7487 54.1699 43.7338 48.1085 51.2366C45.6589 54.2541 43.2549 56.4506 39.9052 58.6983C35.5985 61.5824 33.6616 63.163 32.1007 65.0413C31.2234 66.0984 30.1296 68.028 29.6966 69.2802C28.1243 73.827 29.127 79.3796 32.4197 84.4602C34.5161 87.683 36.9885 90.4131 42.5371 95.6271C43.9841 96.9819 45.6475 98.5727 46.24 99.168C48.9179 101.835 50.8368 104.251 52.1306 106.639V111.162C52.722 111.162 53.2965 111.15 53.854 111.126ZM53.854 111.126C53.5009 109.605 52.9373 108.128 52.1306 106.639V45.7219C55.544 45.8286 58.424 46.3619 60.7706 47.3219C63.224 48.1752 65.464 49.7219 67.4906 51.9619C69.5173 54.0952 71.064 57.2952 72.1306 61.5619C73.1973 65.7219 73.7306 70.8419 73.7306 76.9219C73.7306 82.3619 73.3573 87.1086 72.6106 91.1619C71.9706 95.1086 71.064 98.3619 69.8906 100.922C68.7173 103.482 67.1706 105.562 65.2506 107.162C63.4373 108.655 61.464 109.722 59.3306 110.362C57.7361 110.781 55.9106 111.036 53.854 111.126ZM2.07208 24.1245C1.54099 24.28 0.839948 25.0262 0.553158 25.731C0.192015 26.643 0.202636 28.2287 0.585023 29.2651C1.62597 32.0841 4.22832 32.6127 5.41797 30.2497C5.66227 29.7522 5.71538 29.5035 5.74725 28.6018C5.81098 27.0368 5.41797 25.8553 4.50449 24.9122C3.82469 24.1971 2.8581 23.8862 2.07208 24.1245Z" fill="#E34D00"/>
</svg>
