<svg width="238" height="53" viewBox="0 0 238 53" fill="none" xmlns="http://www.w3.org/2000/svg">
<path d="M50.28 43.12V27.28C50.28 25.09 51.42 24.4 53.16 24.4H59.16C64.53 24.4 69.45 26.74 69.45 35.2C69.45 42.04 65.64 46 59.07 46H53.16C51.42 46 50.28 45.31 50.28 43.12ZM55.2 28.36V42.04H59.34C63.27 42.04 64.53 38.53 64.53 35.2C64.53 30.94 62.91 28.36 59.31 28.36H55.2ZM72.7437 44.2V32.11C72.7437 30.94 73.2237 29.92 74.9337 29.92C76.6437 29.92 77.1237 30.94 77.1237 32.11V44.2C77.1237 45.37 76.6437 46.39 74.9337 46.39C73.2237 46.39 72.7437 45.37 72.7437 44.2ZM72.6537 26.17C72.6537 24.91 73.6737 23.89 74.9337 23.89C76.1937 23.89 77.2137 24.91 77.2137 26.17C77.2137 27.43 76.1937 28.45 74.9337 28.45C73.6737 28.45 72.6537 27.43 72.6537 26.17ZM84.5733 38.11C84.5733 40.12 85.5633 42.34 88.0533 42.34C90.0033 42.34 91.5033 41.05 91.5033 37.93C91.5033 34.75 90.3033 33.34 88.2633 33.34C85.4433 33.34 84.5733 35.41 84.5733 38.11ZM95.7033 31.99V44.71C95.7033 49.99 92.4633 52.42 87.9033 52.42C84.5733 52.42 81.3033 50.92 81.3033 48.79C81.3033 47.71 82.1433 46.93 83.1033 46.93C84.9333 46.93 85.2933 49.18 87.7533 49.18C90.4233 49.18 91.5033 47.83 91.5033 44.38V43.48H91.4433C90.6633 44.62 88.9533 45.58 87.2133 45.58C82.5933 45.58 80.1933 42.58 80.1933 38.26C80.1933 32.59 83.3733 29.92 87.0633 29.92C89.1933 29.92 90.8733 30.91 91.6833 32.53H91.7433V31.99C91.7433 30.64 92.4333 29.92 93.7233 29.92C95.0733 29.92 95.7033 30.64 95.7033 31.99ZM99.4331 44.2V32.11C99.4331 30.94 99.9131 29.92 101.623 29.92C103.333 29.92 103.813 30.94 103.813 32.11V44.2C103.813 45.37 103.333 46.39 101.623 46.39C99.9131 46.39 99.4331 45.37 99.4331 44.2ZM99.3431 26.17C99.3431 24.91 100.363 23.89 101.623 23.89C102.883 23.89 103.903 24.91 103.903 26.17C103.903 27.43 102.883 28.45 101.623 28.45C100.363 28.45 99.3431 27.43 99.3431 26.17ZM108.683 42.49V33.19H107.933C106.703 33.19 106.193 32.71 106.193 31.75C106.193 30.79 106.703 30.31 107.933 30.31H108.683V27.64C108.683 26.2 109.553 25.45 110.873 25.45C112.193 25.45 113.063 26.2 113.063 27.64V30.31H114.383C115.673 30.31 116.363 30.7 116.363 31.75C116.363 32.8 115.673 33.19 114.383 33.19H113.063V41.95C113.063 42.61 113.423 42.97 114.203 42.97H114.833C115.793 42.97 116.363 43.51 116.363 44.44C116.363 45.7 115.283 46.39 113.183 46.39C110.003 46.39 108.683 45.07 108.683 42.49ZM133.196 34.42V41.77C133.196 43.6 133.646 44.02 133.646 44.71C133.646 45.7 132.716 46.39 131.666 46.39C129.776 46.39 129.146 45.19 129.086 43.84C127.376 45.73 125.396 46.39 123.086 46.39C120.596 46.39 118.136 44.68 118.136 41.92C118.136 38.29 120.896 37.27 124.256 36.88L126.926 36.58C127.976 36.46 128.816 36.22 128.816 34.96C128.816 33.7 127.526 33.16 126.056 33.16C122.816 33.16 122.726 35.56 120.986 35.56C119.876 35.56 119.126 34.78 119.126 33.88C119.126 32.14 121.586 29.92 126.086 29.92C130.286 29.92 133.196 31.27 133.196 34.42ZM128.816 40.33V38.62C128.336 39.07 127.436 39.22 126.926 39.31L125.336 39.55C123.506 39.82 122.516 40.39 122.516 41.71C122.516 42.7 123.446 43.51 124.946 43.51C127.346 43.51 128.816 41.95 128.816 40.33ZM137.226 44.2V26.2C137.226 24.76 138.096 24.01 139.416 24.01C140.736 24.01 141.606 24.76 141.606 26.2V44.2C141.606 45.64 140.736 46.39 139.416 46.39C138.096 46.39 137.226 45.64 137.226 44.2ZM162.246 32.56L166.356 33.49C170.856 34.51 171.996 37.18 171.996 39.7C171.996 43.6 169.056 46.51 163.116 46.51C156.876 46.51 154.086 43.39 154.086 41.05C154.086 39.85 154.956 39.01 156.156 39.01C158.826 39.01 158.136 42.91 163.116 42.91C165.666 42.91 167.076 41.5 167.076 40.06C167.076 39.19 166.656 38.23 164.976 37.81L159.426 36.4C154.956 35.26 154.146 32.8 154.146 30.49C154.146 25.69 158.586 23.89 162.756 23.89C166.596 23.89 171.126 26.05 171.126 28.93C171.126 30.16 170.076 30.88 168.876 30.88C166.596 30.88 167.016 27.67 162.426 27.67C160.146 27.67 158.886 28.72 158.886 30.22C158.886 31.72 160.686 32.2 162.246 32.56ZM176.183 42.49V33.19H175.433C174.203 33.19 173.693 32.71 173.693 31.75C173.693 30.79 174.203 30.31 175.433 30.31H176.183V27.64C176.183 26.2 177.053 25.45 178.373 25.45C179.693 25.45 180.563 26.2 180.563 27.64V30.31H181.883C183.173 30.31 183.863 30.7 183.863 31.75C183.863 32.8 183.173 33.19 181.883 33.19H180.563V41.95C180.563 42.61 180.923 42.97 181.703 42.97H182.333C183.293 42.97 183.863 43.51 183.863 44.44C183.863 45.7 182.783 46.39 180.683 46.39C177.503 46.39 176.183 45.07 176.183 42.49ZM199.766 38.98H189.866C189.866 41.29 191.366 42.97 193.916 42.97C197.216 42.97 197.216 40.81 198.986 40.81C200.036 40.81 200.786 41.71 200.786 42.52C200.786 45.16 196.556 46.39 193.916 46.39C187.796 46.39 185.486 42.25 185.486 38.44C185.486 33.34 188.576 29.92 193.766 29.92C198.806 29.92 201.686 33.49 201.686 37.09C201.686 38.59 201.236 38.98 199.766 38.98ZM189.866 36.46H197.546C197.306 34.45 195.806 32.98 193.856 32.98C191.666 32.98 190.346 34.33 189.866 36.46ZM204.515 50.02V31.99C204.515 30.64 205.145 29.92 206.495 29.92C207.785 29.92 208.475 30.64 208.475 31.99V32.68H208.535C209.255 30.82 211.025 29.92 213.155 29.92C216.815 29.92 220.025 32.59 220.025 38.26C220.025 42.46 217.895 46.39 213.275 46.39C211.265 46.39 209.765 45.58 208.955 44.17H208.895V50.02C208.895 51.46 208.025 52.21 206.705 52.21C205.385 52.21 204.515 51.46 204.515 50.02ZM215.645 38.11C215.645 35.53 214.505 33.4 212.165 33.34C209.615 33.34 208.655 35.62 208.655 38.11C208.655 40.36 209.495 43 212.165 42.97C214.955 42.97 215.645 40.15 215.645 38.11ZM222.165 34.81C222.165 31.24 225.705 29.92 228.735 29.92C232.065 29.92 235.425 31.24 235.425 33.25C235.425 34.27 234.735 35.17 233.595 35.17C231.885 35.17 231.825 33.16 229.065 33.16C227.535 33.16 226.545 33.58 226.545 34.51C226.545 35.53 227.535 35.77 228.885 36.07L230.715 36.49C233.205 37.06 236.175 38.11 236.175 41.17C236.175 44.74 232.725 46.39 229.425 46.39C225.465 46.39 222.165 44.62 222.165 42.46C222.165 41.5 222.705 40.63 223.935 40.63C225.825 40.63 226.005 43.33 229.245 43.33C230.805 43.33 231.795 42.64 231.795 41.74C231.795 40.63 230.835 40.45 229.275 40.06L226.695 39.43C224.145 38.8 222.165 37.75 222.165 34.81Z" fill="white"/>
<path fill-rule="evenodd" clip-rule="evenodd" d="M14.9522 0.0637032C14.3272 0.231672 13.7647 0.739483 13.3858 1.48558C13.0264 2.18089 12.8975 2.76682 12.8975 3.65354C12.9014 4.77463 13.1788 5.55197 13.792 6.15744C14.8545 7.21213 16.5264 7.0051 17.3702 5.71604C17.7334 5.16135 17.9131 4.45432 17.9131 3.59495C17.9131 1.33714 16.4952 -0.354265 14.9522 0.0637032ZM19.94 41.8401C20.98 41.8401 21.88 41.7401 22.64 41.5401C23.44 41.3001 24.18 40.9001 24.86 40.3401C25.58 39.7401 26.16 38.9601 26.6 38.0001C27.04 37.0401 27.38 35.8201 27.62 34.3401C27.9 32.8201 28.04 31.0401 28.04 29.0001C28.04 26.7201 27.84 24.8001 27.44 23.2401C27.04 21.6401 26.46 20.4401 25.7 19.6401C24.94 18.8001 24.1 18.2201 23.18 17.9001C22.3 17.5401 21.22 17.3401 19.94 17.3001V41.8401ZM21.74 8.96006C27.98 8.96006 32.98 10.7601 36.74 14.3601C40.54 17.9601 42.44 22.9201 42.44 29.2401C42.44 31.2801 42.24 33.2601 41.84 35.1801C41.48 37.1001 40.86 38.9801 39.98 40.8201C39.1 42.6201 38 44.2001 36.68 45.5601C35.36 46.8801 33.68 47.9601 31.64 48.8001C29.6 49.6001 27.3 50.0001 24.74 50.0001H12.92L12.8304 49.9998C14.2091 49.9887 15.5471 49.5626 16.781 48.7323C17.221 48.4383 18.0883 47.6143 18.4235 47.1772C18.7294 46.7749 19.1316 46.0901 19.3327 45.6221C19.4794 45.2816 19.6805 44.5931 19.7643 44.1598C19.8481 43.7188 19.8314 42.4925 19.7392 42.0128C19.4333 40.4461 18.566 39.0148 16.8983 37.3127C16.6805 37.0883 16.0687 36.4887 15.5366 35.9781C13.496 34.0129 12.5868 32.9839 11.8158 31.7692C10.6049 29.8544 10.2362 27.7616 10.8144 26.0479C10.9737 25.5759 11.3759 24.8486 11.6985 24.4502C12.2726 23.7423 12.9849 23.1465 14.5687 22.0595C15.8006 21.2123 16.6846 20.3845 17.5855 19.2472C19.8146 16.4194 20.5562 13.4097 19.5758 11.1854C19.1613 10.2474 18.4736 9.49663 17.5711 8.96006H21.74ZM7.2072 47.5147C6.45573 46.2057 6.08 44.1742 6.08 41.4201V16.1001C6.08 11.3401 8.36 8.96006 12.92 8.96006H17.5711C16.3296 8.22195 14.6817 7.88927 12.7796 8.03263C10.253 8.22218 7.43309 9.32082 4.75567 11.1544C3.5238 11.9978 2.36736 12.9687 1.8059 13.6302C0.838003 14.7637 0.314251 15.8778 0.0754203 17.2782C-0.0251401 17.8739 -0.0251401 19.1892 0.0754203 19.8661C0.301681 21.3787 0.712303 22.7055 2.07406 26.3032C2.92044 28.5507 3.23469 29.4289 3.53637 30.3882C4.22354 32.5894 4.97774 35.8852 5.31713 38.1715C5.60205 40.0825 5.66071 41.0767 5.55177 42.0902C5.46797 42.8136 5.47635 43.8232 5.56434 44.2642C5.81237 45.4892 6.38645 46.6013 7.2072 47.5147ZM12.4331 49.9915C12.5634 49.9962 12.6959 49.9989 12.8304 49.9998C12.6983 50.0008 12.5659 49.9981 12.4331 49.9915ZM12.4331 49.9915C11.834 49.9619 11.2285 49.8545 10.6217 49.6684C9.26321 49.253 8.0919 48.4993 7.2072 47.5147C7.33977 47.7457 7.48404 47.9541 7.64 48.1401C8.64678 49.296 10.2445 49.9131 12.4331 49.9915ZM8.39753 3.67308C8.56549 2.81762 9.12018 2.14574 9.80768 1.96996C10.6163 1.75903 11.46 2.37231 11.7256 3.36058C11.8155 3.70043 11.8155 4.31371 11.7296 4.64964C11.5538 5.3098 11.1553 5.84886 10.6592 6.09886C10.4131 6.22386 10.3663 6.23167 10.0225 6.23167C9.70612 6.23167 9.62018 6.21605 9.43659 6.13011C8.64753 5.75902 8.1944 4.69652 8.39753 3.67308ZM6.09285 4.29026C5.22957 4.59105 4.83504 5.89182 5.30379 6.90354C5.4366 7.1887 5.81551 7.55198 6.06941 7.63791C6.64363 7.82541 7.23347 7.52854 7.55379 6.89182C7.71004 6.57932 7.76863 6.29807 7.76472 5.89964C7.76082 5.48557 7.65535 5.13401 7.44441 4.8137C7.10457 4.30589 6.60847 4.11448 6.09285 4.29026ZM2.39753 7.72777C2.47956 7.2512 2.72956 6.91136 3.09284 6.77464C3.64753 6.57152 4.30769 7.01683 4.55768 7.76683C4.87409 8.71214 4.36237 9.67307 3.57722 9.59886C3.29206 9.57542 3.07722 9.45432 2.83113 9.19261C2.47566 8.8137 2.30769 8.2473 2.39753 7.72777ZM0.0967632 9.63401C0.202232 9.36839 0.460044 9.08714 0.655356 9.02855C0.944418 8.9387 1.29989 9.05589 1.54989 9.32542C1.88582 9.68089 2.03035 10.1262 2.00692 10.716C1.9952 11.0559 1.97567 11.1496 1.88582 11.3371C1.44832 12.2278 0.491294 12.0285 0.108482 10.966C-0.0321428 10.5754 -0.036049 9.97776 0.0967632 9.63401Z" fill="#805AF5"/>
</svg>
