<svg width="56" height="56" viewBox="0 0 56 56" fill="none" xmlns="http://www.w3.org/2000/svg">
<path fill-rule="evenodd" clip-rule="evenodd" d="M0 9.88235C0 4.4239 4.42322 0 9.88235 0H46.1176C51.5761 0 56 4.42322 56 9.88235V46.1176C56 51.5761 51.5768 56 46.1176 56H9.88235C4.4239 56 0 51.5768 0 46.1176V9.88235ZM29.6471 26.3529H52.7059V9.88235C52.7059 6.24262 49.7569 3.29412 46.1176 3.29412H29.6471V26.3529ZM29.6471 29.6471V52.7059H46.1176C49.7569 52.7059 52.7059 49.7574 52.7059 46.1176V29.6471H29.6471ZM26.3529 26.3529V3.29412H9.88235C6.24308 3.29412 3.29412 6.24262 3.29412 9.88235V26.3529H26.3529ZM26.3529 29.6471H3.29412V46.1176C3.29412 49.7574 6.24308 52.7059 9.88235 52.7059H26.3529V29.6471ZM16.4706 16.4706V19.7647C16.4706 20.6744 15.7332 21.4118 14.8235 21.4118C13.9139 21.4118 13.1765 20.6744 13.1765 19.7647V16.4706H9.88235C8.97271 16.4706 8.23529 15.7332 8.23529 14.8235C8.23529 13.9139 8.97271 13.1765 9.88235 13.1765H13.1765V9.88235C13.1765 8.97271 13.9139 8.23529 14.8235 8.23529C15.7332 8.23529 16.4706 8.97271 16.4706 9.88235V13.1765H19.7647C20.6744 13.1765 21.4118 13.9139 21.4118 14.8235C21.4118 15.7332 20.6744 16.4706 19.7647 16.4706H16.4706ZM45.2941 13.1765C46.2038 13.1765 46.9412 13.9139 46.9412 14.8235C46.9412 15.7332 46.2038 16.4706 45.2941 16.4706H37.0588C36.1492 16.4706 35.4118 15.7332 35.4118 14.8235C35.4118 13.9139 36.1492 13.1765 37.0588 13.1765H45.2941ZM45.2941 42.8235C46.2038 42.8235 46.9412 43.5609 46.9412 44.4706C46.9412 45.3802 46.2038 46.1176 45.2941 46.1176H37.0588C36.1492 46.1176 35.4118 45.3802 35.4118 44.4706C35.4118 43.5609 36.1492 42.8235 37.0588 42.8235H45.2941ZM45.2941 36.2353C46.2038 36.2353 46.9412 36.9727 46.9412 37.8824C46.9412 38.792 46.2038 39.5294 45.2941 39.5294H37.0588C36.1492 39.5294 35.4118 38.792 35.4118 37.8824C35.4118 36.9727 36.1492 36.2353 37.0588 36.2353H45.2941ZM12.4942 41.1765L9.54123 38.2234C8.89802 37.5802 8.89802 36.5374 9.54123 35.8942C10.1845 35.251 11.2273 35.251 11.8705 35.8942L14.8235 38.8472L17.7765 35.8942C18.4197 35.251 19.4626 35.251 20.1058 35.8942C20.749 36.5374 20.749 37.5802 20.1058 38.2234L17.1528 41.1765L20.1058 44.1295C20.749 44.7727 20.749 45.8155 20.1058 46.4587C19.4626 47.102 18.4197 47.102 17.7765 46.4587L14.8235 43.5058L11.8705 46.4587C11.2273 47.102 10.1845 47.102 9.54123 46.4587C8.89802 45.8155 8.89802 44.7727 9.54123 44.1295L12.4942 41.1765Z" fill="#E34D00"/>
</svg>
